<svg width="78" height="13" viewBox="0 0 78 13" fill="none" xmlns="http://www.w3.org/2000/svg">
<path d="M6.91588 0.879999V2.368H2.19588V5.648H5.87588V7.136H2.19588V12H0.371875V0.879999H6.91588ZM7.99825 7.552C7.99825 6.66667 8.17958 5.88267 8.54225 5.2C8.91558 4.51733 9.41692 3.98933 10.0463 3.616C10.6863 3.232 11.3903 3.04 12.1583 3.04C12.8516 3.04 13.4543 3.17867 13.9663 3.456C14.4889 3.72267 14.9049 4.05867 15.2143 4.464V3.184H17.0543V12H15.2143V10.688C14.9049 11.104 14.4836 11.4507 13.9503 11.728C13.4169 12.0053 12.8089 12.144 12.1263 12.144C11.3689 12.144 10.6756 11.952 10.0463 11.568C9.41692 11.1733 8.91558 10.6293 8.54225 9.936C8.17958 9.232 7.99825 8.43733 7.99825 7.552ZM15.2143 7.584C15.2143 6.976 15.0863 6.448 14.8303 6C14.5849 5.552 14.2596 5.21067 13.8543 4.976C13.4489 4.74133 13.0116 4.624 12.5423 4.624C12.0729 4.624 11.6356 4.74133 11.2303 4.976C10.8249 5.2 10.4943 5.536 10.2383 5.984C9.99292 6.42133 9.87025 6.944 9.87025 7.552C9.87025 8.16 9.99292 8.69333 10.2383 9.152C10.4943 9.61067 10.8249 9.96267 11.2303 10.208C11.6463 10.4427 12.0836 10.56 12.5423 10.56C13.0116 10.56 13.4489 10.4427 13.8543 10.208C14.2596 9.97333 14.5849 9.632 14.8303 9.184C15.0863 8.72533 15.2143 8.192 15.2143 7.584ZM18.842 7.584C18.842 6.67733 19.0233 5.88267 19.386 5.2C19.7593 4.50667 20.2713 3.97333 20.922 3.6C21.5727 3.22667 22.3193 3.04 23.162 3.04C24.2287 3.04 25.1087 3.296 25.802 3.808C26.506 4.30933 26.9807 5.02933 27.226 5.968H25.258C25.098 5.53067 24.842 5.18933 24.49 4.944C24.138 4.69867 23.6953 4.576 23.162 4.576C22.4153 4.576 21.818 4.84267 21.37 5.376C20.9327 5.89867 20.714 6.63467 20.714 7.584C20.714 8.53333 20.9327 9.27467 21.37 9.808C21.818 10.3413 22.4153 10.608 23.162 10.608C24.218 10.608 24.9167 10.144 25.258 9.216H27.226C26.97 10.112 26.49 10.8267 25.786 11.36C25.082 11.8827 24.2073 12.144 23.162 12.144C22.3193 12.144 21.5727 11.9573 20.922 11.584C20.2713 11.2 19.7593 10.6667 19.386 9.984C19.0233 9.29067 18.842 8.49067 18.842 7.584ZM37.1238 7.376C37.1238 7.70667 37.1024 8.00533 37.0598 8.272H30.3238C30.3771 8.976 30.6384 9.54133 31.1078 9.968C31.5771 10.3947 32.1531 10.608 32.8358 10.608C33.8171 10.608 34.5104 10.1973 34.9158 9.376H36.8837C36.6171 10.1867 36.1318 10.8533 35.4278 11.376C34.7344 11.888 33.8704 12.144 32.8358 12.144C31.9931 12.144 31.2358 11.9573 30.5638 11.584C29.9024 11.2 29.3798 10.6667 28.9958 9.984C28.6224 9.29067 28.4358 8.49067 28.4358 7.584C28.4358 6.67733 28.6171 5.88267 28.9798 5.2C29.3531 4.50667 29.8704 3.97333 30.5318 3.6C31.2038 3.22667 31.9718 3.04 32.8358 3.04C33.6678 3.04 34.4091 3.22133 35.0598 3.584C35.7104 3.94667 36.2171 4.45867 36.5798 5.12C36.9424 5.77067 37.1238 6.52267 37.1238 7.376ZM35.2198 6.8C35.2091 6.128 34.9691 5.58933 34.4998 5.184C34.0304 4.77867 33.4491 4.576 32.7558 4.576C32.1264 4.576 31.5878 4.77867 31.1398 5.184C30.6918 5.57867 30.4251 6.11733 30.3398 6.8H35.2198ZM40.7428 4.496C41.0521 4.06933 41.4734 3.72267 42.0068 3.456C42.5508 3.17867 43.1534 3.04 43.8148 3.04C44.5934 3.04 45.2974 3.22667 45.9268 3.6C46.5561 3.97333 47.0521 4.50667 47.4148 5.2C47.7774 5.88267 47.9588 6.66667 47.9588 7.552C47.9588 8.43733 47.7774 9.232 47.4148 9.936C47.0521 10.6293 46.5508 11.1733 45.9108 11.568C45.2814 11.952 44.5828 12.144 43.8148 12.144C43.1321 12.144 42.5241 12.0107 41.9908 11.744C41.4681 11.4773 41.0521 11.136 40.7428 10.72V12H38.9188V0.16H40.7428V4.496ZM46.1028 7.552C46.1028 6.944 45.9748 6.42133 45.7188 5.984C45.4734 5.536 45.1428 5.2 44.7268 4.976C44.3214 4.74133 43.8841 4.624 43.4148 4.624C42.9561 4.624 42.5188 4.74133 42.1028 4.976C41.6974 5.21067 41.3668 5.552 41.1108 6C40.8654 6.448 40.7428 6.976 40.7428 7.584C40.7428 8.192 40.8654 8.72533 41.1108 9.184C41.3668 9.632 41.6974 9.97333 42.1028 10.208C42.5188 10.4427 42.9561 10.56 43.4148 10.56C43.8841 10.56 44.3214 10.4427 44.7268 10.208C45.1428 9.96267 45.4734 9.61067 45.7188 9.152C45.9748 8.69333 46.1028 8.16 46.1028 7.552ZM53.5865 12.144C52.7545 12.144 52.0025 11.9573 51.3305 11.584C50.6585 11.2 50.1305 10.6667 49.7465 9.984C49.3625 9.29067 49.1705 8.49067 49.1705 7.584C49.1705 6.688 49.3678 5.89333 49.7625 5.2C50.1572 4.50667 50.6958 3.97333 51.3785 3.6C52.0612 3.22667 52.8238 3.04 53.6665 3.04C54.5092 3.04 55.2718 3.22667 55.9545 3.6C56.6372 3.97333 57.1758 4.50667 57.5705 5.2C57.9652 5.89333 58.1625 6.688 58.1625 7.584C58.1625 8.48 57.9598 9.27467 57.5545 9.968C57.1492 10.6613 56.5945 11.2 55.8905 11.584C55.1972 11.9573 54.4292 12.144 53.5865 12.144ZM53.5865 10.56C54.0558 10.56 54.4932 10.448 54.8985 10.224C55.3145 10 55.6505 9.664 55.9065 9.216C56.1625 8.768 56.2905 8.224 56.2905 7.584C56.2905 6.944 56.1678 6.40533 55.9225 5.968C55.6772 5.52 55.3518 5.184 54.9465 4.96C54.5412 4.736 54.1038 4.624 53.6345 4.624C53.1652 4.624 52.7278 4.736 52.3225 4.96C51.9278 5.184 51.6132 5.52 51.3785 5.968C51.1438 6.40533 51.0265 6.944 51.0265 7.584C51.0265 8.53333 51.2665 9.26933 51.7465 9.792C52.2372 10.304 52.8505 10.56 53.5865 10.56ZM63.7896 12.144C62.9576 12.144 62.2056 11.9573 61.5336 11.584C60.8616 11.2 60.3336 10.6667 59.9496 9.984C59.5656 9.29067 59.3736 8.49067 59.3736 7.584C59.3736 6.688 59.571 5.89333 59.9656 5.2C60.3603 4.50667 60.899 3.97333 61.5816 3.6C62.2643 3.22667 63.027 3.04 63.8696 3.04C64.7123 3.04 65.475 3.22667 66.1576 3.6C66.8403 3.97333 67.379 4.50667 67.7736 5.2C68.1683 5.89333 68.3656 6.688 68.3656 7.584C68.3656 8.48 68.163 9.27467 67.7576 9.968C67.3523 10.6613 66.7976 11.2 66.0936 11.584C65.4003 11.9573 64.6323 12.144 63.7896 12.144ZM63.7896 10.56C64.259 10.56 64.6963 10.448 65.1016 10.224C65.5176 10 65.8536 9.664 66.1096 9.216C66.3656 8.768 66.4936 8.224 66.4936 7.584C66.4936 6.944 66.371 6.40533 66.1256 5.968C65.8803 5.52 65.555 5.184 65.1496 4.96C64.7443 4.736 64.307 4.624 63.8376 4.624C63.3683 4.624 62.931 4.736 62.5256 4.96C62.131 5.184 61.8163 5.52 61.5816 5.968C61.347 6.40533 61.2296 6.944 61.2296 7.584C61.2296 8.53333 61.4696 9.26933 61.9496 9.792C62.4403 10.304 63.0536 10.56 63.7896 10.56ZM73.6568 7.6L77.7208 12H75.2568L71.9928 8.208V12H70.1688V0.16H71.9928V7.04L75.1928 3.184H77.7208L73.6568 7.6Z" fill="white"/>
</svg>
