<?xml version="1.0" encoding="utf-8"?><svg xmlns="http://www.w3.org/2000/svg" xmlns:xlink="http://www.w3.org/1999/xlink"><symbol viewBox="0 0 30 11" id="icon-arrow" xmlns="http://www.w3.org/2000/svg"><path d="M0 5.5h29m0 0L23.514 1M29 5.5L23.514 10"/></symbol><symbol viewBox="0 0 20 18" id="icon-cart" xmlns="http://www.w3.org/2000/svg"><path d="M14 5a4 4 0 11-8 0M1 1h18v16H1V1z" stroke-width="2" stroke-linecap="round" stroke-linejoin="round"/></symbol><symbol viewBox="0 0 78 13" id="icon-facebook" xmlns="http://www.w3.org/2000/svg"><path d="M6.916.88v1.488h-4.72v3.28h3.68v1.488h-3.68V12H.372V.88h6.544zm1.082 6.672c0-.885.182-1.67.544-2.352a4.063 4.063 0 013.616-2.16c.694 0 1.296.139 1.808.416.523.267.939.603 1.248 1.008v-1.28h1.84V12h-1.84v-1.312c-.31.416-.73.763-1.264 1.04-.533.277-1.141.416-1.824.416-.757 0-1.45-.192-2.08-.576a4.275 4.275 0 01-1.504-1.632c-.362-.704-.544-1.499-.544-2.384zm7.216.032c0-.608-.128-1.136-.384-1.584a2.585 2.585 0 00-.976-1.024 2.575 2.575 0 00-1.312-.352c-.47 0-.906.117-1.312.352-.405.224-.736.56-.992 1.008-.245.437-.368.96-.368 1.568 0 .608.123 1.141.368 1.6.256.459.587.81.992 1.056.416.235.854.352 1.312.352.47 0 .907-.117 1.312-.352.406-.235.73-.576.976-1.024.256-.459.384-.992.384-1.6zm3.628 0c0-.907.181-1.701.544-2.384a3.967 3.967 0 011.536-1.6c.65-.373 1.397-.56 2.24-.56 1.067 0 1.947.256 2.64.768.704.501 1.179 1.221 1.424 2.16h-1.968a2.081 2.081 0 00-.768-1.024c-.352-.245-.795-.368-1.328-.368-.747 0-1.344.267-1.792.8-.437.523-.656 1.259-.656 2.208 0 .95.219 1.69.656 2.224.448.533 1.045.8 1.792.8 1.056 0 1.755-.464 2.096-1.392h1.968c-.256.896-.736 1.61-1.44 2.144-.704.523-1.579.784-2.624.784-.843 0-1.59-.187-2.24-.56a4.105 4.105 0 01-1.536-1.6c-.363-.693-.544-1.493-.544-2.4zm18.282-.208c0 .33-.022.63-.064.896h-6.736c.053.704.314 1.27.784 1.696.47.427 1.045.64 1.728.64.981 0 1.674-.41 2.08-1.232h1.968a3.997 3.997 0 01-1.456 2c-.694.512-1.558.768-2.592.768-.843 0-1.6-.187-2.272-.56a4.185 4.185 0 01-1.568-1.6c-.374-.693-.56-1.493-.56-2.4 0-.907.181-1.701.544-2.384a3.936 3.936 0 011.552-1.6c.672-.373 1.44-.56 2.304-.56.832 0 1.573.181 2.224.544.65.363 1.157.875 1.52 1.536.362.65.544 1.403.544 2.256zM35.22 6.8c-.01-.672-.25-1.21-.72-1.616-.47-.405-1.05-.608-1.744-.608-.63 0-1.168.203-1.616.608-.448.395-.715.933-.8 1.616h4.88zm5.523-2.304c.31-.427.73-.773 1.264-1.04a3.922 3.922 0 011.808-.416c.778 0 1.482.187 2.112.56.63.373 1.125.907 1.488 1.6.362.683.544 1.467.544 2.352 0 .885-.182 1.68-.544 2.384a4.117 4.117 0 01-1.504 1.632 3.946 3.946 0 01-2.096.576c-.683 0-1.29-.133-1.824-.4-.523-.267-.939-.608-1.248-1.024V12h-1.824V.16h1.824v4.336zm5.36 3.056c0-.608-.128-1.13-.384-1.568a2.443 2.443 0 00-.992-1.008 2.575 2.575 0 00-1.312-.352c-.459 0-.896.117-1.312.352A2.696 2.696 0 0041.11 6c-.246.448-.368.976-.368 1.584 0 .608.122 1.141.368 1.6.256.448.586.79.992 1.024.416.235.853.352 1.312.352.47 0 .906-.117 1.312-.352.416-.245.746-.597.992-1.056.256-.459.384-.992.384-1.6zm7.483 4.592c-.831 0-1.584-.187-2.255-.56a4.151 4.151 0 01-1.585-1.6c-.384-.693-.576-1.493-.576-2.4 0-.896.198-1.69.593-2.384a4.09 4.09 0 011.616-1.6c.682-.373 1.445-.56 2.288-.56.842 0 1.605.187 2.288.56a4.09 4.09 0 011.616 1.6c.394.693.592 1.488.592 2.384 0 .896-.203 1.69-.608 2.384a4.252 4.252 0 01-1.664 1.616 4.781 4.781 0 01-2.304.56zm0-1.584c.47 0 .907-.112 1.313-.336.416-.224.752-.56 1.008-1.008.256-.448.384-.992.384-1.632 0-.64-.123-1.179-.368-1.616a2.473 2.473 0 00-.977-1.008 2.67 2.67 0 00-1.311-.336c-.47 0-.907.112-1.313.336-.394.224-.709.56-.944 1.008-.234.437-.352.976-.352 1.616 0 .95.24 1.685.72 2.208.491.512 1.104.768 1.84.768zm10.204 1.584c-.832 0-1.584-.187-2.256-.56a4.151 4.151 0 01-1.584-1.6c-.384-.693-.576-1.493-.576-2.4 0-.896.197-1.69.592-2.384a4.09 4.09 0 011.616-1.6c.682-.373 1.445-.56 2.288-.56.842 0 1.605.187 2.288.56a4.088 4.088 0 011.616 1.6c.394.693.592 1.488.592 2.384 0 .896-.203 1.69-.608 2.384a4.252 4.252 0 01-1.664 1.616 4.781 4.781 0 01-2.304.56zm0-1.584c.469 0 .906-.112 1.312-.336.416-.224.752-.56 1.008-1.008.256-.448.384-.992.384-1.632 0-.64-.123-1.179-.368-1.616a2.472 2.472 0 00-.976-1.008 2.669 2.669 0 00-1.312-.336c-.47 0-.907.112-1.312.336-.395.224-.71.56-.944 1.008-.235.437-.352.976-.352 1.616 0 .95.24 1.685.72 2.208.49.512 1.104.768 1.84.768zm9.867-2.96L77.72 12h-2.464l-3.264-3.792V12h-1.824V.16h1.824v6.88l3.2-3.856h2.528L73.657 7.6z"/></symbol><symbol viewBox="0 0 15 15" id="icon-instagram" xmlns="http://www.w3.org/2000/svg"><path d="M7.5 0c2.038 0 2.292.007 3.091.045.8.038 1.343.163 1.822.349.495.19.912.448 1.329.864.38.375.676.829.864 1.33.185.477.312 1.022.349 1.82.035.8.045 1.054.045 3.092 0 2.038-.008 2.292-.045 3.091-.037.8-.164 1.343-.349 1.822-.188.5-.483.954-.864 1.329a3.687 3.687 0 01-1.33.864c-.477.185-1.022.312-1.82.349-.8.035-1.054.045-3.092.045-2.038 0-2.292-.008-3.091-.045-.8-.037-1.343-.164-1.821-.349a3.668 3.668 0 01-1.33-.864 3.678 3.678 0 01-.864-1.33c-.186-.477-.311-1.022-.349-1.82C.01 9.791 0 9.537 0 7.5c0-2.038.007-2.292.045-3.091.038-.8.163-1.343.349-1.821.187-.501.483-.955.864-1.33a3.673 3.673 0 011.33-.864C3.066.208 3.608.083 4.407.045 5.208.01 5.463 0 7.5 0zm0 3.75a3.75 3.75 0 100 7.5 3.75 3.75 0 000-7.5zm4.875-.188a.938.938 0 10-1.875 0 .938.938 0 001.875 0zM7.5 5.25a2.25 2.25 0 110 4.5 2.25 2.25 0 010-4.5z"/></symbol><symbol viewBox="0 0 16 15" id="icon-pinterest" xmlns="http://www.w3.org/2000/svg"><path d="M8.525.07a7.502 7.502 0 00-4.026 14.307 5.818 5.818 0 01.122-1.72c.139-.629.972-4.097.972-4.097a2.804 2.804 0 01-.243-1.183c0-1.113.643-1.944 1.442-1.944A1 1 0 017.8 6.563c0 .676-.434 1.697-.66 2.656a1.158 1.158 0 001.18 1.442c1.424 0 2.378-1.823 2.378-3.976 0-1.65-1.092-2.886-3.107-2.886a3.56 3.56 0 00-3.697 3.596 2.22 2.22 0 00.486 1.477.36.36 0 01.121.416c-.034.138-.121.467-.156.588a.265.265 0 01-.382.19c-1.038-.415-1.527-1.558-1.527-2.862 0-2.135 1.788-4.691 5.365-4.691 2.847 0 4.74 2.083 4.74 4.31 0 2.932-1.633 5.136-4.045 5.136a2.145 2.145 0 01-1.84-.934s-.434 1.736-.52 2.065a6.021 6.021 0 01-.764 1.598c.692.21 1.411.315 2.134.312a7.493 7.493 0 007.497-7.502A7.502 7.502 0 008.526.071L8.525.07z"/></symbol><symbol viewBox="0 0 14 14" id="icon-search" xmlns="http://www.w3.org/2000/svg"><path d="M11.048 10.074L14 13.024l-.975.976-2.951-2.952A6.205 6.205 0 010 6.202 6.205 6.205 0 016.203 0a6.205 6.205 0 014.845 10.074zm-1.382-.512a4.808 4.808 0 001.36-3.36 4.823 4.823 0 00-4.823-4.824 4.822 4.822 0 00-4.825 4.825 4.823 4.823 0 004.825 4.824 4.808 4.808 0 003.36-1.361l.103-.104z"/></symbol><symbol viewBox="0 0 15 13" id="icon-twitter" xmlns="http://www.w3.org/2000/svg"><path d="M15 1.543a5.875 5.875 0 01-1.768.516A3.263 3.263 0 0014.586.244a5.925 5.925 0 01-1.955.796 3.025 3.025 0 00-1.746-.996 2.913 2.913 0 00-1.954.344 3.206 3.206 0 00-1.353 1.543 3.48 3.48 0 00-.19 2.101 8.318 8.318 0 01-3.514-.995A8.868 8.868 0 011.044.604c-.273.501-.417 1.07-.416 1.65 0 1.137.543 2.142 1.368 2.73a2.924 2.924 0 01-1.393-.41v.04c0 .758.246 1.492.696 2.079.45.586 1.076.988 1.773 1.139-.454.13-.93.15-1.391.056.196.652.579 1.222 1.094 1.631a2.958 2.958 0 001.78.648c-.638.534-1.369.93-2.15 1.162-.782.233-1.6.3-2.405.196A8.318 8.318 0 004.717 13c5.661 0 8.757-4.999 8.757-9.334 0-.141-.004-.284-.01-.424A6.496 6.496 0 0015 1.544z"/></symbol></svg>